<svg width="24" height="24" viewBox="0 0 24 24" fill="none" xmlns="http://www.w3.org/2000/svg">
<g filter="url(#filter0_d_1041_2348)">
<path d="M11 12H13V9H16V7H13V4H11V7H8V9H11V12ZM12 17.35C14.0333 15.4833 15.5417 13.7877 16.525 12.263C17.5083 10.7383 18 9.384 18 8.2C18 6.38333 17.421 4.896 16.263 3.738C15.105 2.58 13.684 2.00067 12 2C10.316 1.99933 8.89533 2.57867 7.738 3.738C6.58067 4.89733 6.00133 6.38467 6 8.2C6 9.38333 6.49167 10.7377 7.475 12.263C8.45833 13.7883 9.96667 15.484 12 17.35ZM12 20C9.31667 17.7167 7.31267 15.596 5.988 13.638C4.66333 11.68 4.00067 9.86733 4 8.2C4 5.7 4.80433 3.70833 6.413 2.225C8.02167 0.741667 9.884 0 12 0C14.116 0 15.9787 0.741667 17.588 2.225C19.1973 3.70833 20.0013 5.7 20 8.2C20 9.86667 19.3377 11.6793 18.013 13.638C16.6883 15.5967 14.684 17.7173 12 20Z" fill="#808183"/>
</g>
<defs>
<filter id="filter0_d_1041_2348" x="0" y="0" width="24" height="28" filterUnits="userSpaceOnUse" color-interpolation-filters="sRGB">
<feFlood flood-opacity="0" result="BackgroundImageFix"/>
<feColorMatrix in="SourceAlpha" type="matrix" values="0 0 0 0 0 0 0 0 0 0 0 0 0 0 0 0 0 0 127 0" result="hardAlpha"/>
<feOffset dy="4"/>
<feGaussianBlur stdDeviation="2"/>
<feComposite in2="hardAlpha" operator="out"/>
<feColorMatrix type="matrix" values="0 0 0 0 0 0 0 0 0 0 0 0 0 0 0 0 0 0 0.25 0"/>
<feBlend mode="normal" in2="BackgroundImageFix" result="effect1_dropShadow_1041_2348"/>
<feBlend mode="normal" in="SourceGraphic" in2="effect1_dropShadow_1041_2348" result="shape"/>
</filter>
</defs>
</svg>
