<svg width="16" height="18" viewBox="0 0 16 18" fill="none" xmlns="http://www.w3.org/2000/svg">
<path d="M2.17137 15.5571H5.08566V10.7C5.08566 10.4248 5.17891 10.1942 5.36543 10.0083C5.55194 9.82247 5.7825 9.72922 6.05709 9.72857H9.9428C10.218 9.72857 10.4489 9.82183 10.6354 10.0083C10.8219 10.1949 10.9149 10.4254 10.9142 10.7V15.5571H13.8285V6.81428L7.99994 2.44286L2.17137 6.81428V15.5571ZM0.228516 15.5571V6.81428C0.228516 6.50667 0.297487 6.21524 0.43543 5.94C0.573373 5.66476 0.763449 5.43809 1.00566 5.26L6.83423 0.888571C7.17423 0.629524 7.5628 0.5 7.99994 0.5C8.43709 0.5 8.82566 0.629524 9.16566 0.888571L14.9942 5.26C15.2371 5.43809 15.4275 5.66476 15.5654 5.94C15.7034 6.21524 15.772 6.50667 15.7714 6.81428V15.5571C15.7714 16.0914 15.581 16.549 15.2002 16.9298C14.8194 17.3106 14.3622 17.5006 13.8285 17.5H9.9428C9.66756 17.5 9.43701 17.4067 9.25114 17.2202C9.06528 17.0337 8.97202 16.8032 8.97137 16.5286V11.6714H7.02851V16.5286C7.02851 16.8038 6.93526 17.0347 6.74874 17.2212C6.56223 17.4077 6.33168 17.5006 6.05709 17.5H2.17137C1.63709 17.5 1.17987 17.3099 0.799715 16.9298C0.419563 16.5496 0.229163 16.0921 0.228516 15.5571Z" fill="#808183"/>
</svg>
