<svg width="16" height="14" viewBox="0 0 16 14" fill="none" xmlns="http://www.w3.org/2000/svg">
<path d="M12.6666 9.33333H11.1111V10.8889H12.6666M12.6666 6.22222H11.1111V7.77778H12.6666M14.2222 12.4444H7.99995V10.8889H9.5555V9.33333H7.99995V7.77778H9.5555V6.22222H7.99995V4.66667H14.2222M6.44439 3.11111H4.88883V1.55556H6.44439M6.44439 6.22222H4.88883V4.66667H6.44439M6.44439 9.33333H4.88883V7.77778H6.44439M6.44439 12.4444H4.88883V10.8889H6.44439M3.33328 3.11111H1.77772V1.55556H3.33328M3.33328 6.22222H1.77772V4.66667H3.33328M3.33328 9.33333H1.77772V7.77778H3.33328M3.33328 12.4444H1.77772V10.8889H3.33328M7.99995 3.11111V0H0.222168V14H15.7777V3.11111H7.99995Z" fill="#808183"/>
</svg>
