<svg width="28" height="20" viewBox="0 0 28 20" fill="none" xmlns="http://www.w3.org/2000/svg">
<rect x="0.5" y="0.5" width="27" height="19" rx="7.5" stroke="#808183"/>
<path d="M10.6666 10.8333C9.11663 10.8333 7.82496 11.9 7.44996 13.3333H5.66663V15H7.44996C7.82496 16.4333 9.11663 17.5 10.6666 17.5C12.2166 17.5 13.5083 16.4333 13.8833 15H22.3333V13.3333H13.8833C13.5083 11.9 12.2166 10.8333 10.6666 10.8333ZM10.6666 15.8333C9.74996 15.8333 8.99996 15.0833 8.99996 14.1667C8.99996 13.25 9.74996 12.5 10.6666 12.5C11.5833 12.5 12.3333 13.25 12.3333 14.1667C12.3333 15.0833 11.5833 15.8333 10.6666 15.8333ZM20.55 5C20.175 3.56667 18.8833 2.5 17.3333 2.5C15.7833 2.5 14.4916 3.56667 14.1166 5H5.66663V6.66667H14.1166C14.4916 8.1 15.7833 9.16667 17.3333 9.16667C18.8833 9.16667 20.175 8.1 20.55 6.66667H22.3333V5H20.55ZM17.3333 7.5C16.4166 7.5 15.6666 6.75 15.6666 5.83333C15.6666 4.91667 16.4166 4.16667 17.3333 4.16667C18.25 4.16667 19 4.91667 19 5.83333C19 6.75 18.25 7.5 17.3333 7.5Z" fill="#555658"/>
</svg>
