<svg width="12" height="18" viewBox="0 0 12 18" fill="none" xmlns="http://www.w3.org/2000/svg">
<path d="M5.99996 4.41669C6.55249 4.41669 7.0824 4.63618 7.4731 5.02688C7.8638 5.41758 8.08329 5.94749 8.08329 6.50002C8.08329 6.77361 8.02941 7.04452 7.92471 7.29728C7.82001 7.55004 7.66655 7.7797 7.4731 7.97316C7.27964 8.16662 7.04998 8.32007 6.79722 8.42477C6.54446 8.52947 6.27355 8.58335 5.99996 8.58335C5.44742 8.58335 4.91752 8.36386 4.52682 7.97316C4.13612 7.58246 3.91663 7.05256 3.91663 6.50002C3.91663 5.94749 4.13612 5.41758 4.52682 5.02688C4.91752 4.63618 5.44742 4.41669 5.99996 4.41669ZM5.99996 0.666687C7.54706 0.666687 9.03079 1.28127 10.1247 2.37523C11.2187 3.46919 11.8333 4.95292 11.8333 6.50002C11.8333 10.875 5.99996 17.3334 5.99996 17.3334C5.99996 17.3334 0.166626 10.875 0.166626 6.50002C0.166626 4.95292 0.781207 3.46919 1.87517 2.37523C2.96913 1.28127 4.45286 0.666687 5.99996 0.666687ZM5.99996 2.33335C4.89489 2.33335 3.83508 2.77234 3.05368 3.55374C2.27228 4.33514 1.83329 5.39495 1.83329 6.50002C1.83329 7.33335 1.83329 9.00002 5.99996 14.5917C10.1666 9.00002 10.1666 7.33335 10.1666 6.50002C10.1666 5.39495 9.72764 4.33514 8.94624 3.55374C8.16484 2.77234 7.10503 2.33335 5.99996 2.33335Z" fill="#AAACAF"/>
</svg>
