<svg width="33" height="32" viewBox="0 0 33 32" fill="none" xmlns="http://www.w3.org/2000/svg">
<g clip-path="url(#clip0_271_916)">
<path d="M16.1533 17.8133L19.3533 10.28L17.9133 7.33333H14.5V5.33333H19.1667L20.14 7.33333H29.5L28.1667 12H22.42L23.3133 13.8267C24.0867 13.5067 24.94 13.3333 25.8333 13.3333C29.5133 13.3333 32.5 16.32 32.5 20C32.5 23.68 29.5133 26.6667 25.8333 26.6667C22.1533 26.6667 19.1667 23.68 19.1667 20C19.1667 17.9333 20.1133 16.08 21.5933 14.8667L20.5 12.6667L16.8333 21.3333H13.7C13.0867 24.3733 10.3933 26.6667 7.16667 26.6667C3.48667 26.6667 0.5 23.68 0.5 20C0.5 16.32 3.48667 13.3333 7.16667 13.3333C10.62 13.3333 13.46 15.96 13.8333 19.3333H14.6067L11.5667 12H10.5C9.95333 12 9.5 11.5467 9.5 11C9.5 10.4533 9.95333 9.99999 10.5 9.99999H14.1667C14.7133 9.99999 15.1667 10.4533 15.1667 11C15.1667 11.5467 14.7133 12 14.1667 12H13.7933L16.1533 17.8133ZM7.16667 15.3333C4.59333 15.3333 2.5 17.4267 2.5 20C2.5 22.5733 4.59333 24.6667 7.16667 24.6667C9.28667 24.6667 11.0733 23.2667 11.6467 21.3333H5.83333V19.3333H11.7933C11.46 17.0667 9.51333 15.3333 7.16667 15.3333ZM25.8333 15.3333C25.26 15.3333 24.7 15.44 24.1933 15.6267L26.7667 20.9067L24.9667 21.7867L22.5 16.7333C21.6733 17.5733 21.1667 18.7333 21.1667 20C21.1667 22.5733 23.26 24.6667 25.8333 24.6667C28.4067 24.6667 30.5 22.5733 30.5 20C30.5 17.4267 28.4067 15.3333 25.8333 15.3333Z" fill="#1976D2"/>
</g>
<defs>
<clipPath id="clip0_271_916">
<rect width="32" height="32" fill="white" transform="translate(0.5)"/>
</clipPath>
</defs>
</svg>
