<svg width="33" height="32" viewBox="0 0 33 32" fill="none" xmlns="http://www.w3.org/2000/svg">
<path d="M21.8333 8L25.8333 13.3333H28.4999C29.9799 13.3333 31.1666 14.52 31.1666 16V20H28.4999C28.4999 21.0609 28.0785 22.0783 27.3283 22.8284C26.5782 23.5786 25.5608 24 24.4999 24C23.4391 24 22.4216 23.5786 21.6715 22.8284C20.9213 22.0783 20.4999 21.0609 20.4999 20H12.4999C12.4999 21.0609 12.0785 22.0783 11.3283 22.8284C10.5782 23.5786 9.56078 24 8.49992 24C7.43905 24 6.42164 23.5786 5.67149 22.8284C4.92135 22.0783 4.49992 21.0609 4.49992 20H1.83325V16C1.83325 14.52 3.01992 13.3333 4.49992 13.3333L8.49992 8H21.8333ZM14.4999 10H9.49992L6.97992 13.3333H14.4999V10ZM16.4999 10V13.3333H23.3533L20.8333 10H16.4999ZM8.49992 18C7.96949 18 7.46078 18.2107 7.0857 18.5858C6.71063 18.9609 6.49992 19.4696 6.49992 20C6.49992 20.5304 6.71063 21.0391 7.0857 21.4142C7.46078 21.7893 7.96949 22 8.49992 22C9.03035 22 9.53906 21.7893 9.91413 21.4142C10.2892 21.0391 10.4999 20.5304 10.4999 20C10.4999 19.4696 10.2892 18.9609 9.91413 18.5858C9.53906 18.2107 9.03035 18 8.49992 18ZM24.4999 18C23.9695 18 23.4608 18.2107 23.0857 18.5858C22.7106 18.9609 22.4999 19.4696 22.4999 20C22.4999 20.5304 22.7106 21.0391 23.0857 21.4142C23.4608 21.7893 23.9695 22 24.4999 22C25.0303 22 25.5391 21.7893 25.9141 21.4142C26.2892 21.0391 26.4999 20.5304 26.4999 20C26.4999 19.4696 26.2892 18.9609 25.9141 18.5858C25.5391 18.2107 25.0303 18 24.4999 18Z" fill="#1976D2"/>
</svg>
