<svg width="33" height="32" viewBox="0 0 33 32" fill="none" xmlns="http://www.w3.org/2000/svg">
<path d="M4.49992 8C3.01992 8 1.83325 9.18667 1.83325 10.6667V20H4.49992C4.49992 21.0609 4.92135 22.0783 5.67149 22.8284C6.42164 23.5786 7.43905 24 8.49992 24C9.56078 24 10.5782 23.5786 11.3283 22.8284C12.0785 22.0783 12.4999 21.0609 12.4999 20H20.4999C20.4999 21.0609 20.9213 22.0783 21.6715 22.8284C22.4216 23.5786 23.4391 24 24.4999 24C25.5608 24 26.5782 23.5786 27.3283 22.8284C28.0785 22.0783 28.4999 21.0609 28.4999 20H31.1666V10.6667C31.1666 9.18667 29.9799 8 28.4999 8H4.49992ZM3.83325 10H9.16658V13.3333H3.83325V10ZM11.1666 10H16.4999V13.3333H11.1666V10ZM18.4999 10H23.8333V13.3333H18.4999V10ZM25.8333 10H29.1666V17.3333L25.8333 14.6667V10ZM8.49992 18C9.03035 18 9.53906 18.2107 9.91413 18.5858C10.2892 18.9609 10.4999 19.4696 10.4999 20C10.4999 20.5304 10.2892 21.0391 9.91413 21.4142C9.53906 21.7893 9.03035 22 8.49992 22C7.96949 22 7.46078 21.7893 7.0857 21.4142C6.71063 21.0391 6.49992 20.5304 6.49992 20C6.49992 19.4696 6.71063 18.9609 7.0857 18.5858C7.46078 18.2107 7.96949 18 8.49992 18ZM24.4999 18C25.0303 18 25.5391 18.2107 25.9141 18.5858C26.2892 18.9609 26.4999 19.4696 26.4999 20C26.4999 20.5304 26.2892 21.0391 25.9141 21.4142C25.5391 21.7893 25.0303 22 24.4999 22C23.9695 22 23.4608 21.7893 23.0857 21.4142C22.7106 21.0391 22.4999 20.5304 22.4999 20C22.4999 19.4696 22.7106 18.9609 23.0857 18.5858C23.4608 18.2107 23.9695 18 24.4999 18Z" fill="#1976D2"/>
</svg>
