<svg width="33" height="32" viewBox="0 0 33 32" fill="none" xmlns="http://www.w3.org/2000/svg">
<path d="M23.7267 13.3333L18.3801 8H12.5001V10.6667H17.2867L19.9534 13.3333H9.16675C5.83341 13.3333 3.16675 16 3.16675 19.3333C3.16675 22.6667 5.83341 25.3333 9.16675 25.3333C12.1267 25.3333 14.5801 23.1733 15.0601 20.36L17.8867 18.6667C17.8334 18.8933 17.8334 19.1067 17.8334 19.3333C17.8334 22.6667 20.5001 25.3333 23.8334 25.3333C27.1667 25.3333 29.8334 22.6667 29.8334 19.3333C29.8334 16 27.1667 13.3333 23.8334 13.3333M12.2867 20.3467C11.8334 21.6933 10.6067 22.6667 9.12675 22.6667C7.28675 22.6667 5.79341 21.1733 5.79341 19.3333C5.79341 17.4933 7.28675 16 9.12675 16C10.6201 16 11.8334 16.9867 12.2867 18.3333H8.50008V20.3333L12.2867 20.3467ZM23.7934 22.6667C21.9534 22.6667 20.4601 21.1733 20.4601 19.3333C20.4601 17.4933 21.9534 16 23.7934 16C24.6775 16 25.5253 16.3512 26.1504 16.9763C26.7756 17.6014 27.1267 18.4493 27.1267 19.3333C27.1267 20.2174 26.7756 21.0652 26.1504 21.6904C25.5253 22.3155 24.6775 22.6667 23.7934 22.6667Z" fill="#1976D2"/>
</svg>
