<svg width="22" height="22" viewBox="0 0 22 22" fill="none" xmlns="http://www.w3.org/2000/svg">
<path d="M3.72787 15.137C2.18287 13.591 1.40987 12.819 1.12287 11.816C0.834866 10.813 1.08087 9.748 1.57287 7.619L1.85587 6.391C2.26887 4.599 2.47587 3.703 3.08887 3.089C3.70187 2.475 4.59887 2.269 6.39087 1.856L7.61887 1.572C9.74887 1.081 10.8129 0.835001 11.8159 1.122C12.8189 1.41 13.5909 2.183 15.1359 3.728L16.9659 5.558C19.6569 8.248 20.9999 9.592 20.9999 11.262C20.9999 12.933 19.6559 14.277 16.9669 16.966C14.2769 19.656 12.9329 21 11.2619 21C9.59187 21 8.24687 19.656 5.55787 16.967L3.72787 15.137Z" stroke="#1976D2" stroke-width="1.5"/>
<path d="M14.3899 14.39C14.9749 13.803 15.0539 12.933 14.5659 12.444C14.0779 11.955 13.2069 12.035 12.6209 12.621C12.0359 13.207 11.1649 13.286 10.6769 12.798C10.1889 12.31 10.2679 11.439 10.8539 10.854M10.8539 10.854L10.4999 10.5M10.8539 10.854C11.1849 10.522 11.6069 10.354 11.9999 10.357M14.7429 14.743L14.3889 14.389C13.9889 14.79 13.4539 14.954 12.9999 14.86" stroke="#1976D2" stroke-width="1.5" stroke-linecap="round"/>
<path d="M9.02096 9.29324C9.80201 8.51219 9.80201 7.24586 9.02096 6.46481C8.23991 5.68377 6.97358 5.68377 6.19253 6.46481C5.41149 7.24586 5.41148 8.51219 6.19253 9.29324C6.97358 10.0743 8.23991 10.0743 9.02096 9.29324Z" stroke="#1976D2" stroke-width="1.5"/>
</svg>
