<svg width="24" height="16" viewBox="0 0 24 16" fill="none" xmlns="http://www.w3.org/2000/svg">
<path d="M11.74 9.36L14.14 3.71L13.06 1.5H10.5V0H14L14.73 1.5H21.75L20.75 5H16.44L17.11 6.37C17.69 6.13 18.33 6 19 6C21.76 6 24 8.24 24 11C24 13.76 21.76 16 19 16C16.24 16 14 13.76 14 11C14 9.45 14.71 8.06 15.82 7.15L15 5.5L12.25 12H9.9C9.44 14.28 7.42 16 5 16C2.24 16 0 13.76 0 11C0 8.24 2.24 6 5 6C7.59 6 9.72 7.97 10 10.5H10.58L8.3 5H7.5C7.09 5 6.75 4.66 6.75 4.25C6.75 3.84 7.09 3.5 7.5 3.5H10.25C10.66 3.5 11 3.84 11 4.25C11 4.66 10.66 5 10.25 5H9.97L11.74 9.36ZM5 7.5C3.07 7.5 1.5 9.07 1.5 11C1.5 12.93 3.07 14.5 5 14.5C6.59 14.5 7.93 13.45 8.36 12H4V10.5H8.47C8.22 8.8 6.76 7.5 5 7.5ZM19 7.5C18.57 7.5 18.15 7.58 17.77 7.72L19.7 11.68L18.35 12.34L16.5 8.55C15.88 9.18 15.5 10.05 15.5 11C15.5 12.93 17.07 14.5 19 14.5C20.93 14.5 22.5 12.93 22.5 11C22.5 9.07 20.93 7.5 19 7.5Z" fill="#555658"/>
</svg>
