<svg width="20" height="13" viewBox="0 0 20 13" fill="none" xmlns="http://www.w3.org/2000/svg">
<path d="M15.42 4L11.41 0H7V2H10.59L12.59 4H4.5C2 4 0 6 0 8.5C0 11 2 13 4.5 13C6.72 13 8.56 11.38 8.92 9.27L11.04 8C11 8.17 11 8.33 11 8.5C11 11 13 13 15.5 13C18 13 20 11 20 8.5C20 6 18 4 15.5 4M6.84 9.26C6.5 10.27 5.58 11 4.47 11C3.09 11 1.97 9.88 1.97 8.5C1.97 7.12 3.09 6 4.47 6C5.59 6 6.5 6.74 6.84 7.75H4V9.25L6.84 9.26ZM15.47 11C14.09 11 12.97 9.88 12.97 8.5C12.97 7.12 14.09 6 15.47 6C16.133 6 16.7689 6.26339 17.2378 6.73223C17.7066 7.20107 17.97 7.83696 17.97 8.5C17.97 9.16304 17.7066 9.79893 17.2378 10.2678C16.7689 10.7366 16.133 11 15.47 11Z" fill="#555658"/>
</svg>
