<svg width="9" height="16" viewBox="0 0 9 16" fill="none" xmlns="http://www.w3.org/2000/svg">
<path d="M3.68746 15.5V13.7083C2.95135 13.5417 2.31607 13.2222 1.78163 12.75C1.24718 12.2778 0.854682 11.6111 0.604126 10.75L2.14579 10.125C2.35413 10.7917 2.66329 11.2986 3.07329 11.6458C3.48329 11.9931 4.02135 12.1667 4.68746 12.1667C5.2569 12.1667 5.73968 12.0383 6.13579 11.7817C6.5319 11.525 6.72968 11.1256 6.72913 10.5833C6.72913 10.0972 6.57635 9.71194 6.27079 9.4275C5.96524 9.14306 5.2569 8.82 4.14579 8.45833C2.95135 8.08333 2.1319 7.63556 1.68746 7.115C1.24301 6.59444 1.02079 5.95889 1.02079 5.20833C1.02079 4.30556 1.31246 3.60417 1.89579 3.10417C2.47913 2.60417 3.07635 2.31944 3.68746 2.25V0.5H5.35413V2.25C6.04857 2.36111 6.62163 2.61472 7.07329 3.01083C7.52496 3.40694 7.85468 3.88944 8.06246 4.45833L6.52079 5.125C6.35413 4.68056 6.11801 4.34722 5.81246 4.125C5.5069 3.90278 5.09024 3.79167 4.56246 3.79167C3.95135 3.79167 3.48607 3.92722 3.16663 4.19833C2.84718 4.46944 2.68746 4.80611 2.68746 5.20833C2.68746 5.66667 2.89579 6.02778 3.31246 6.29167C3.72913 6.55556 4.45135 6.83333 5.47913 7.125C6.43746 7.40278 7.16329 7.84389 7.65663 8.44833C8.14996 9.05278 8.39635 9.75056 8.39579 10.5417C8.39579 11.5278 8.10413 12.2778 7.52079 12.7917C6.93746 13.3056 6.21524 13.625 5.35413 13.75V15.5H3.68746Z" fill="#FFC107"/>
</svg>
