<svg width="22" height="21" viewBox="0 0 22 21" fill="none" xmlns="http://www.w3.org/2000/svg">
<path d="M5 5.9L2.87 3.78L4.28 2.37L6.4 4.5L5 5.9ZM12 0V3H10V0H12ZM19.13 3.78L17 5.9L15.6 4.5L17.72 2.37L19.13 3.78ZM3.5 9.5V11.5H0.5V9.5H3.5ZM18.5 9.5H21.5V11.5H18.5V9.5ZM5 19H17C17.5304 19 18.0391 19.2107 18.4142 19.5858C18.7893 19.9609 19 20.4696 19 21H3C3 20.4696 3.21071 19.9609 3.58579 19.5858C3.96086 19.2107 4.46957 19 5 19ZM11 4C12.5913 4 14.1174 4.63214 15.2426 5.75736C16.3679 6.88258 17 8.4087 17 10V18H5V10C5 8.4087 5.63214 6.88258 6.75736 5.75736C7.88258 4.63214 9.4087 4 11 4ZM11 6C9.93913 6 8.92172 6.42143 8.17157 7.17157C7.42143 7.92172 7 8.93913 7 10V16H15V10C15 8.93913 14.5786 7.92172 13.8284 7.17157C13.0783 6.42143 12.0609 6 11 6Z" fill="#1976D2"/>
</svg>
