<svg width="21" height="21" viewBox="0 0 21 21" fill="none" xmlns="http://www.w3.org/2000/svg">
<path d="M15 1.23C15.71 0.41 16.61 0 17.7 0C18.61 0 19.37 0.33 20 1C20.63 1.67 20.96 2.43 21 3.3C21 4 20.67 4.81 20 5.76C19.33 6.71 18.68 7.5 18.03 8.15C17.38 8.79 16.37 9.74 15 11C13.61 9.74 12.59 8.79 11.94 8.15C11.29 7.51 10.63 6.71 9.97 5.76C9.31 4.81 9 4 9 3.3C9 2.39 9.32 1.63 9.97 1C10.62 0.37 11.4 0.04 12.31 0C13.38 0 14.27 0.41 15 1.23ZM21 17V18L13 20.5L6 18.56V20H0V9H7.97L14.13 11.3C15.25 11.72 16 12.8 16 14H18C19.66 14 21 15.34 21 17ZM4 18V11H2V18H4ZM18.9 16.57C18.74 16.24 18.39 16 18 16H12.65C12.11 16 11.58 15.92 11.07 15.75L8.69 14.96L9.32 13.06L11.7 13.85C12 13.95 14 14 14 14C14 13.63 13.77 13.3 13.43 13.17L7.61 11H6V16.5L12.97 18.41L18.9 16.57Z" fill="#1976D2"/>
</svg>
