<svg width="18" height="16" viewBox="0 0 18 16" fill="none" xmlns="http://www.w3.org/2000/svg">
<path d="M1.00067 14.9174L0.070702 14.5606C0.00425373 14.7218 -0.0158565 14.8973 0.0124908 15.0686C0.0408381 15.24 0.116593 15.4007 0.23177 15.534C0.346947 15.6673 0.497279 15.7682 0.66692 15.8259C0.83656 15.8837 1.01922 15.8963 1.19566 15.8623L1.00067 14.9174ZM5.70648 14.0148L6.18046 13.1653L5.86347 13.0013L5.51149 13.0688L5.70648 14.0148ZM2.6246 10.9802L3.55457 11.337L3.71756 10.9378L3.52157 10.553L2.6246 10.9802ZM16.0001 8.16738C16.0001 11.2974 13.1472 13.9531 9.47033 13.9531V15.8816C14.1112 15.8816 18 12.4931 18 8.16738H16.0001ZM2.94159 8.16738C2.94159 5.03732 5.79548 2.38169 9.47133 2.38169V0.453125C4.83052 0.453125 0.940668 3.84161 0.940668 8.16738H2.94159ZM9.47133 2.38169C13.1472 2.38169 16.0001 5.03732 16.0001 8.16738H18C18 3.84161 14.1122 0.453125 9.47133 0.453125V2.38169ZM9.47033 13.9531C8.26538 13.9531 7.14342 13.6638 6.18046 13.1653L5.2325 14.8634C6.53577 15.5371 7.9916 15.8871 9.47033 15.8816V13.9531ZM1.19566 15.8623L5.90147 14.9598L5.51149 13.0688L0.805673 13.9714L1.19566 15.8633V15.8623ZM3.52157 10.553C3.14088 9.81124 2.94311 8.99502 2.94159 8.16738H0.940668C0.940668 9.32452 1.22266 10.4219 1.72664 11.4074L3.52157 10.553ZM1.69564 10.6234L0.070702 14.5615L1.92863 15.2732L3.55257 11.336L1.69464 10.6234H1.69564Z" fill="#1976D2"/>
<path d="M6.00045 9.13157C6.55271 9.13157 7.00041 8.69984 7.00041 8.16728C7.00041 7.63473 6.55271 7.203 6.00045 7.203C5.44819 7.203 5.00049 7.63473 5.00049 8.16728C5.00049 8.69984 5.44819 9.13157 6.00045 9.13157Z" fill="#1976D2"/>
<path d="M9.50167 9.13157C10.0539 9.13157 10.5016 8.69984 10.5016 8.16728C10.5016 7.63473 10.0539 7.203 9.50167 7.203C8.94941 7.203 8.50171 7.63473 8.50171 8.16728C8.50171 8.69984 8.94941 9.13157 9.50167 9.13157Z" fill="#1976D2"/>
<path d="M13 9.13157C13.5522 9.13157 13.9999 8.69984 13.9999 8.16728C13.9999 7.63473 13.5522 7.203 13 7.203C12.4477 7.203 12 7.63473 12 8.16728C12 8.69984 12.4477 9.13157 13 9.13157Z" fill="#1976D2"/>
</svg>
