<svg width="18" height="19" viewBox="0 0 18 19" fill="none" xmlns="http://www.w3.org/2000/svg">
<path fill-rule="evenodd" clip-rule="evenodd" d="M2.29183 1.22497C3.41511 0.0476914 5.2648 0.256877 6.20533 1.58204L7.37016 3.2205C8.13624 4.29853 8.06794 5.80467 7.15879 6.75719L6.93912 6.98875C6.91421 7.08596 6.91168 7.18803 6.93173 7.28648C6.98988 7.68344 7.30462 8.52407 8.62266 9.90567C9.9407 11.2873 10.7437 11.6181 11.1258 11.6803C11.2221 11.7008 11.3216 11.6978 11.4166 11.6716L11.7932 11.2766C12.6017 10.4301 13.8422 10.2715 14.8427 10.8446L16.6057 11.8564C18.1166 12.7204 18.4978 14.8843 17.261 16.1812L15.9494 17.555C15.5359 17.988 14.9803 18.349 14.3028 18.4161C12.6322 18.5805 8.73989 18.3704 4.64824 14.0826C0.8298 10.0798 0.0969396 6.58887 0.00371692 4.86868C-0.0424329 3.99886 0.347072 3.26331 0.843644 2.74375L2.29183 1.22497ZM5.09774 2.45673C4.62978 1.79804 3.75847 1.7455 3.26743 2.26019L1.81833 3.778C1.51374 4.09713 1.36791 4.44934 1.38637 4.78598C1.46021 6.15298 2.05092 9.30244 5.62477 13.0483C9.37398 16.9771 12.8361 17.0948 14.1745 16.9625C14.4477 16.9362 14.7191 16.7864 14.9729 16.5208L16.2835 15.146C16.817 14.5875 16.6998 13.5698 15.9448 13.1378L14.1819 12.1269C13.6945 11.8487 13.1241 11.9401 12.7697 12.3118L12.3497 12.7525L11.8605 12.2349C12.3497 12.7525 12.3488 12.7535 12.3479 12.7535L12.347 12.7555L12.3442 12.7584L12.3377 12.7642L12.3239 12.7778C12.2849 12.816 12.2429 12.8505 12.1984 12.881C12.1245 12.9325 12.0267 12.9899 11.9039 13.0376C11.6547 13.1359 11.3243 13.1884 10.9163 13.1223C10.1161 12.9929 9.05555 12.4178 7.64613 10.9409C6.23764 9.46395 5.68753 8.35283 5.56385 7.51026C5.50016 7.08021 5.55093 6.73189 5.64508 6.46919C5.69689 6.32137 5.77108 6.18337 5.86475 6.06055L5.89428 6.0265L5.90721 6.0119L5.91274 6.00607L5.91551 6.00315L5.91736 6.0012L6.18318 5.72294C6.57823 5.30749 6.63361 4.61961 6.26164 4.09518L5.09774 2.45673Z" fill="#1976D2"/>
</svg>
