<svg width="18" height="17" viewBox="0 0 18 17" fill="none" xmlns="http://www.w3.org/2000/svg">
<path d="M9.00008 15.1198C12.6667 15.1198 15.6667 12.1198 15.6667 8.45315C15.6667 4.78648 12.6667 1.78648 9.00008 1.78648C5.33341 1.78648 2.33341 4.78648 2.33341 8.45315C2.33341 12.1198 5.33341 15.1198 9.00008 15.1198ZM9.00008 0.119812C13.5834 0.119812 17.3334 3.86981 17.3334 8.45315C17.3334 13.0365 13.5834 16.7865 9.00008 16.7865C4.41675 16.7865 0.666748 13.0365 0.666748 8.45315C0.666748 3.86981 4.41675 0.119812 9.00008 0.119812ZM11.7501 11.9531L10.6667 12.6198L8.16675 8.28648V4.28648H9.41675V7.95315L11.7501 11.9531Z" fill="#ED5C1D"/>
</svg>
