<svg width="19" height="20" viewBox="0 0 19 20" fill="none" xmlns="http://www.w3.org/2000/svg">
<path d="M9.5 0.453125C8.83609 0.452913 8.19451 0.692891 7.69371 1.12876C7.19291 1.56462 6.86671 2.16695 6.77531 2.82454C6.68391 3.48213 6.83349 4.15058 7.19644 4.7065C7.55939 5.26242 8.1112 5.66827 8.75 5.84912V9.70312C8.75 9.90204 8.82902 10.0928 8.96967 10.2335C9.11032 10.3741 9.30109 10.4531 9.5 10.4531C9.69891 10.4531 9.88968 10.3741 10.0303 10.2335C10.171 10.0928 10.25 9.90204 10.25 9.70312V5.84912C10.8874 5.66688 11.4375 5.26061 11.7992 4.70505C12.1609 4.14949 12.3098 3.482 12.2185 2.82539C12.1273 2.16878 11.802 1.56721 11.3025 1.13134C10.803 0.695476 10.1629 0.454635 9.5 0.453125ZM3 2.45313C2.33696 2.45313 1.70107 2.71652 1.23223 3.18536C0.763392 3.6542 0.5 4.29008 0.5 4.95312V16.9531C0.5 17.6162 0.763392 18.2521 1.23223 18.7209C1.70107 19.1897 2.33696 19.4531 3 19.4531C3.66304 19.4531 4.29893 19.1897 4.76777 18.7209C5.23661 18.2521 5.5 17.6162 5.5 16.9531V13.4531H7V16.9531C7 17.6162 7.26339 18.2521 7.73223 18.7209C8.20107 19.1897 8.83696 19.4531 9.5 19.4531C10.163 19.4531 10.7989 19.1897 11.2678 18.7209C11.7366 18.2521 12 17.6162 12 16.9531V13.4531H16.5C17.0304 13.4531 17.5391 13.2424 17.9142 12.8673C18.2893 12.4923 18.5 11.9836 18.5 11.4531V4.95312C18.5 4.29008 18.2366 3.6542 17.7678 3.18536C17.2989 2.71652 16.663 2.45313 16 2.45313C15.337 2.45313 14.7011 2.71652 14.2322 3.18536C13.7634 3.6542 13.5 4.29008 13.5 4.95312V8.45312H11.25V9.95312H15V4.95312C15 4.68791 15.1054 4.43356 15.2929 4.24602C15.4804 4.05848 15.7348 3.95313 16 3.95313C16.2652 3.95313 16.5196 4.05848 16.7071 4.24602C16.8946 4.43356 17 4.68791 17 4.95312V11.4531C17 11.5857 16.9473 11.7129 16.8536 11.8067C16.7598 11.9004 16.6326 11.9531 16.5 11.9531H10.5V16.9531C10.5 17.2183 10.3946 17.4727 10.2071 17.6602C10.0196 17.8478 9.76522 17.9531 9.5 17.9531C9.23478 17.9531 8.98043 17.8478 8.79289 17.6602C8.60536 17.4727 8.5 17.2183 8.5 16.9531V11.9531H4V16.9531C4 17.2183 3.89464 17.4727 3.70711 17.6602C3.51957 17.8478 3.26522 17.9531 3 17.9531C2.73478 17.9531 2.48043 17.8478 2.29289 17.6602C2.10536 17.4727 2 17.2183 2 16.9531V4.95312C2 4.68791 2.10536 4.43356 2.29289 4.24602C2.48043 4.05848 2.73478 3.95313 3 3.95313C3.26522 3.95313 3.51957 4.05848 3.70711 4.24602C3.89464 4.43356 4 4.68791 4 4.95312V9.95312H7.75V8.45312H5.5V4.95312C5.5 4.29008 5.23661 3.6542 4.76777 3.18536C4.29893 2.71652 3.66304 2.45313 3 2.45313Z" fill="#1976D2"/>
</svg>
