<svg width="27" height="15" viewBox="0 0 27 15" fill="none" xmlns="http://www.w3.org/2000/svg">
<path d="M18.1667 0.453125L21.6667 5.11979H24.0001C25.2951 5.11979 26.3334 6.15812 26.3334 7.45312V10.9531H24.0001C24.0001 11.8814 23.6313 12.7716 22.975 13.428C22.3186 14.0844 21.4283 14.4531 20.5001 14.4531C19.5718 14.4531 18.6816 14.0844 18.0252 13.428C17.3688 12.7716 17.0001 11.8814 17.0001 10.9531H10.0001C10.0001 11.8814 9.63133 12.7716 8.97496 13.428C8.31858 14.0844 7.42834 14.4531 6.50008 14.4531C5.57182 14.4531 4.68159 14.0844 4.02521 13.428C3.36883 12.7716 3.00008 11.8814 3.00008 10.9531H0.666748V7.45312C0.666748 6.15812 1.70508 5.11979 3.00008 5.11979L6.50008 0.453125H18.1667ZM11.7501 2.20312H7.37508L5.17008 5.11979H11.7501V2.20312ZM13.5001 2.20312V5.11979H19.4967L17.2917 2.20312H13.5001ZM6.50008 9.20312C6.03595 9.20312 5.59083 9.3875 5.26264 9.71569C4.93446 10.0439 4.75008 10.489 4.75008 10.9531C4.75008 11.4173 4.93446 11.8624 5.26264 12.1906C5.59083 12.5187 6.03595 12.7031 6.50008 12.7031C6.96421 12.7031 7.40933 12.5187 7.73752 12.1906C8.06571 11.8624 8.25008 11.4173 8.25008 10.9531C8.25008 10.489 8.06571 10.0439 7.73752 9.71569C7.40933 9.3875 6.96421 9.20312 6.50008 9.20312ZM20.5001 9.20312C20.036 9.20312 19.5908 9.3875 19.2626 9.71569C18.9345 10.0439 18.7501 10.489 18.7501 10.9531C18.7501 11.4173 18.9345 11.8624 19.2626 12.1906C19.5908 12.5187 20.036 12.7031 20.5001 12.7031C20.9642 12.7031 21.4093 12.5187 21.7375 12.1906C22.0657 11.8624 22.2501 11.4173 22.2501 10.9531C22.2501 10.489 22.0657 10.0439 21.7375 9.71569C21.4093 9.3875 20.9642 9.20312 20.5001 9.20312Z" fill="#1976D2"/>
</svg>
