<svg width="20" height="22" viewBox="0 0 20 22" fill="none" xmlns="http://www.w3.org/2000/svg">
<path d="M16.5001 9.11979C16.1907 9.11979 15.8939 8.99687 15.6751 8.77808C15.4563 8.55929 15.3334 8.26254 15.3334 7.95312C15.3334 7.64371 15.4563 7.34696 15.6751 7.12817C15.8939 6.90937 16.1907 6.78646 16.5001 6.78646C16.8095 6.78646 17.1062 6.90937 17.325 7.12817C17.5438 7.34696 17.6667 7.64371 17.6667 7.95312C17.6667 8.26254 17.5438 8.55929 17.325 8.77808C17.1062 8.99687 16.8095 9.11979 16.5001 9.11979ZM9.50008 9.11979H2.50008V3.28646H9.50008M18.5651 5.88812L18.5767 5.87646L14.2367 1.53646L13.0001 2.77312L15.4617 5.23479C14.3651 5.61979 13.5834 6.70479 13.5834 7.95312C13.5834 8.33615 13.6589 8.71542 13.8054 9.06929C13.952 9.42315 14.1668 9.74468 14.4377 10.0155C14.9847 10.5625 15.7265 10.8698 16.5001 10.8698C16.9201 10.8698 17.3051 10.7765 17.6667 10.6248V19.0365C17.6667 19.3459 17.5438 19.6426 17.325 19.8614C17.1062 20.0802 16.8095 20.2031 16.5001 20.2031C16.1907 20.2031 15.8939 20.0802 15.6751 19.8614C15.4563 19.6426 15.3334 19.3459 15.3334 19.0365V13.7865C15.3334 13.1676 15.0876 12.5741 14.65 12.1365C14.2124 11.699 13.6189 11.4531 13.0001 11.4531H11.8334V3.28646C11.8334 2.66762 11.5876 2.07413 11.15 1.63654C10.7124 1.19896 10.1189 0.953125 9.50008 0.953125H2.50008C1.20508 0.953125 0.166748 1.99146 0.166748 3.28646V21.9531H11.8334V13.2031H13.5834V19.0365C13.5834 19.81 13.8907 20.5519 14.4377 21.0989C14.9847 21.6458 15.7265 21.9531 16.5001 21.9531C16.8831 21.9531 17.2624 21.8777 17.6162 21.7311C17.9701 21.5845 18.2916 21.3697 18.5625 21.0989C18.8333 20.828 19.0482 20.5065 19.1947 20.1526C19.3413 19.7988 19.4167 19.4195 19.4167 19.0365V7.95312C19.4167 7.14812 19.0901 6.41312 18.5651 5.88812Z" fill="#1976D2"/>
</svg>
