<svg width="23" height="23" viewBox="0 0 23 23" fill="none" xmlns="http://www.w3.org/2000/svg">
<path d="M2.85021 0.314697L2.84974 0.315166C2.5413 0.310479 2.18177 0.352197 1.84099 0.428135C1.45146 0.514385 1.08255 0.647979 0.842549 0.78251C0.72208 0.85001 0.635361 0.918447 0.596924 0.960635L1.80911 5.2047C2.14755 4.77813 2.53146 4.42657 2.92239 4.16407C3.37661 3.8622 3.82192 3.66392 4.22974 3.57954C4.22974 2.9636 4.21567 2.36454 4.14536 1.85642C4.0563 1.2447 3.88286 0.776885 3.6063 0.50126C3.54536 0.437979 3.31192 0.34001 2.97864 0.319385C2.93692 0.319385 2.8938 0.314697 2.85021 0.314697ZM4.21099 4.63282C3.89692 4.65157 3.54536 4.79688 3.22192 5.04063C2.58067 5.52345 2.09505 6.38595 2.08099 6.92501L4.22505 18.1891C4.5813 17.7438 5.12505 17.4531 5.73442 17.4531C6.27349 17.4531 6.76567 17.6828 7.11724 18.0484C7.3563 17.9969 7.60942 17.9453 7.88599 17.8938C7.9563 17.8797 8.0313 17.8703 8.1063 17.8563C7.47349 13.5203 6.45161 8.50001 5.05005 4.95157C4.8063 4.72657 4.56724 4.63751 4.3188 4.63282H4.21099ZM17.4766 6.48438L14.9641 14.3313L15.7704 14.5844L16.8954 11.0641L22.3844 12.8219L22.6376 12.0156L17.1532 10.2625L18.2829 6.73751L17.4766 6.48438ZM15.6625 17.9828C14.6547 17.9875 13.4922 18.0484 12.3344 18.1563C10.7875 18.2922 9.24067 18.5031 8.04067 18.7234C7.87661 18.7516 7.72192 18.7844 7.57192 18.8125C7.62817 18.9906 7.6563 19.1781 7.6563 19.375C7.6563 20.4297 6.78911 21.2969 5.73442 21.2969C5.47192 21.2969 5.2188 21.2406 4.98911 21.1469C4.8438 21.5641 4.73599 21.9719 4.67505 22.2813H18.1563C18.3907 22.2813 18.5172 22.1969 18.6579 21.9813C18.8032 21.7609 18.911 21.4 18.9532 20.9734C19.0422 20.125 18.8547 19.0422 18.5266 18.3906C18.5407 18.4141 18.3954 18.2734 18.0485 18.1844C17.7016 18.0953 17.2001 18.0297 16.6094 18.0016C16.3141 17.9875 15.9954 17.9828 15.6625 17.9828ZM5.73442 18.2969C5.13442 18.2969 4.6563 18.775 4.6563 19.375C4.6563 19.975 5.13442 20.4531 5.73442 20.4531C6.33442 20.4531 6.81255 19.975 6.81255 19.375C6.81255 18.775 6.33442 18.2969 5.73442 18.2969Z" fill="#1976D2"/>
</svg>
