<svg width="19" height="18" viewBox="0 0 19 18" fill="none" xmlns="http://www.w3.org/2000/svg">
<path d="M2.5 18C1.95 18 1.47933 17.8043 1.088 17.413C0.696667 17.0217 0.500667 16.5507 0.5 16V2C0.5 1.45 0.696 0.979333 1.088 0.588C1.48 0.196667 1.95067 0.000666667 2.5 0H16.5C17.05 0 17.521 0.196 17.913 0.588C18.305 0.98 18.5007 1.45067 18.5 2V16C18.5 16.55 18.3043 17.021 17.913 17.413C17.5217 17.805 17.0507 18.0007 16.5 18H2.5ZM2.5 16H16.5V2H2.5V16ZM4.5 14H14.5C14.7 14 14.85 13.9083 14.95 13.725C15.05 13.5417 15.0333 13.3667 14.9 13.2L12.15 9.525C12.05 9.39167 11.9167 9.325 11.75 9.325C11.5833 9.325 11.45 9.39167 11.35 9.525L8.75 13L6.9 10.525C6.8 10.3917 6.66667 10.325 6.5 10.325C6.33333 10.325 6.2 10.3917 6.1 10.525L4.1 13.2C3.96667 13.3667 3.95 13.5417 4.05 13.725C4.15 13.9083 4.3 14 4.5 14Z" fill="#1976D2"/>
</svg>
