<svg width="23" height="12" viewBox="0 0 23 12" fill="none" xmlns="http://www.w3.org/2000/svg">
<path d="M15.5 0L18.5 4H20.5C21.61 4 22.5 4.89 22.5 6V9H20.5C20.5 9.79565 20.1839 10.5587 19.6213 11.1213C19.0587 11.6839 18.2956 12 17.5 12C16.7044 12 15.9413 11.6839 15.3787 11.1213C14.8161 10.5587 14.5 9.79565 14.5 9H8.5C8.5 9.79565 8.18393 10.5587 7.62132 11.1213C7.05871 11.6839 6.29565 12 5.5 12C4.70435 12 3.94129 11.6839 3.37868 11.1213C2.81607 10.5587 2.5 9.79565 2.5 9H0.5V6C0.5 4.89 1.39 4 2.5 4L5.5 0H15.5ZM10 1.5H6.25L4.36 4H10V1.5ZM11.5 1.5V4H16.64L14.75 1.5H11.5ZM5.5 7.5C5.10218 7.5 4.72064 7.65804 4.43934 7.93934C4.15804 8.22064 4 8.60218 4 9C4 9.39782 4.15804 9.77936 4.43934 10.0607C4.72064 10.342 5.10218 10.5 5.5 10.5C5.89782 10.5 6.27936 10.342 6.56066 10.0607C6.84196 9.77936 7 9.39782 7 9C7 8.60218 6.84196 8.22064 6.56066 7.93934C6.27936 7.65804 5.89782 7.5 5.5 7.5ZM17.5 7.5C17.1022 7.5 16.7206 7.65804 16.4393 7.93934C16.158 8.22064 16 8.60218 16 9C16 9.39782 16.158 9.77936 16.4393 10.0607C16.7206 10.342 17.1022 10.5 17.5 10.5C17.8978 10.5 18.2794 10.342 18.5607 10.0607C18.842 9.77936 19 9.39782 19 9C19 8.60218 18.842 8.22064 18.5607 7.93934C18.2794 7.65804 17.8978 7.5 17.5 7.5Z" fill="#1976D2"/>
</svg>
