<svg width="28" height="28" viewBox="0 0 28 28" fill="none" xmlns="http://www.w3.org/2000/svg">
<g clip-path="url(#clip0_48_817)">
<path d="M9.75402 0.920964C6.95639 1.89149 4.54371 3.73358 2.87038 6.17666C1.19704 8.61973 0.351251 11.535 0.457238 14.4943C0.563224 17.4536 1.6154 20.3009 3.45922 22.6181C5.30304 24.9352 7.84131 26.5999 10.7012 27.3678C13.0198 27.9661 15.449 27.9924 17.78 27.4444C19.8916 26.9701 21.8439 25.9555 23.4456 24.5C25.1126 22.9389 26.3227 20.9529 26.9456 18.7557C27.6227 16.3662 27.7431 13.8533 27.2978 11.41H14.2778V16.811H21.8181C21.6674 17.6724 21.3444 18.4945 20.8686 19.2282C20.3927 19.9619 19.7738 20.5921 19.0487 21.081C18.1279 21.69 17.09 22.0998 16.0015 22.2841C14.9098 22.4871 13.7901 22.4871 12.6984 22.2841C11.5919 22.0553 10.5452 21.5987 9.62496 20.9432C8.14653 19.8966 7.03644 18.4099 6.45308 16.695C5.85986 14.9481 5.85986 13.0542 6.45308 11.3072C6.86833 10.0827 7.55478 8.96776 8.46121 8.04565C9.4985 6.97104 10.8117 6.2029 12.2569 5.82551C13.702 5.44812 15.2231 5.47606 16.6534 5.90628C17.7707 6.24926 18.7924 6.84852 19.6371 7.65628C20.4874 6.81044 21.3361 5.96242 22.1834 5.11221C22.6209 4.65503 23.0978 4.21971 23.5287 3.75159C22.2393 2.55169 20.7258 1.61803 19.075 1.00409C16.0687 -0.0874959 12.7793 -0.116831 9.75402 0.920964Z" fill="white"/>
<path d="M9.75407 0.920928C12.7791 -0.117572 16.0685 -0.0890089 19.075 1.00187C20.7262 1.61997 22.239 2.55814 23.5266 3.76249C23.0891 4.23062 22.6275 4.66812 22.1813 5.12312C21.3325 5.97041 20.4845 6.81478 19.6372 7.65624C18.7925 6.84848 17.7708 6.24922 16.6534 5.90624C15.2236 5.47452 13.7025 5.44496 12.2571 5.8208C10.8116 6.19665 9.4975 6.96338 8.45907 8.03687C7.55264 8.95897 6.86619 10.0739 6.45095 11.2984L1.91626 7.78749C3.5394 4.56872 6.34977 2.10661 9.75407 0.920928Z" fill="#E33629"/>
<path d="M0.713138 11.2656C0.956872 10.0576 1.36152 8.88785 1.91626 7.78748L6.45095 11.3072C5.85773 13.0541 5.85773 14.948 6.45095 16.695C4.94012 17.8616 3.42856 19.0341 1.91626 20.2125C0.52753 17.4482 0.103991 14.2986 0.713138 11.2656Z" fill="#F8BD00"/>
<path d="M14.2778 11.4078H27.2978C27.7432 13.8511 27.6227 16.364 26.9456 18.7535C26.3227 20.9508 25.1127 22.9367 23.4456 24.4978C21.9822 23.356 20.5122 22.2228 19.0488 21.081C19.7743 20.5916 20.3936 19.9607 20.8694 19.2263C21.3453 18.4918 21.668 17.6688 21.8181 16.8066H14.2778C14.2756 15.0085 14.2778 13.2081 14.2778 11.4078Z" fill="#587DBD"/>
<path d="M1.91406 20.2125C3.42635 19.0458 4.93792 17.8733 6.44875 16.695C7.03327 18.4104 8.14495 19.8973 9.625 20.9431C10.5481 21.5956 11.5971 22.0485 12.705 22.2731C13.7967 22.4761 14.9164 22.4761 16.0081 22.2731C17.0966 22.0889 18.1346 21.6791 19.0553 21.07C20.5188 22.2119 21.9888 23.345 23.4522 24.4869C21.8507 25.9432 19.8984 26.9585 17.7866 27.4334C15.4556 27.9814 13.0264 27.9552 10.7078 27.3569C8.87404 26.8673 7.16117 26.0041 5.67656 24.8216C4.1052 23.574 2.82178 22.0018 1.91406 20.2125Z" fill="#319F43"/>
</g>
<defs>
<clipPath id="clip0_48_817">
<rect width="28" height="28" fill="white"/>
</clipPath>
</defs>
</svg>
